<?xml version="1.0" encoding="utf-8"?><svg viewBox="0 0 43 43" xmlns="http://www.w3.org/2000/svg" xmlns:xlink="http://www.w3.org/1999/xlink"><style>:root>svg{display:none}:root>svg:target{display:block}</style><svg viewBox="0 0 43 43" id="comfort" xmlns="http://www.w3.org/2000/svg"><path d="M5.44 21.265c0-9.15 7.444-16.594 16.595-16.594 3.44 0 6.723 1.043 9.486 2.98h-2.135a1.101 1.101 0 100 2.203h5.162c.608 0 1.1-.493 1.1-1.101V3.59a1.101 1.101 0 00-2.202 0v2.742a18.635 18.635 0 00-11.411-3.865c-5.021 0-9.742 1.955-13.292 5.506a18.674 18.674 0 00-5.505 13.291c0 3.299.871 6.549 2.52 9.399a1.101 1.101 0 101.907-1.104 16.584 16.584 0 01-2.225-8.295zM38.31 11.867a1.101 1.101 0 00-1.906 1.103 16.583 16.583 0 012.225 8.295c0 9.15-7.444 16.594-16.594 16.594-3.441 0-6.723-1.043-9.486-2.98h2.134a1.101 1.101 0 100-2.202H9.522c-.608 0-1.101.493-1.101 1.1v5.162a1.101 1.101 0 002.202 0v-2.744a18.632 18.632 0 0011.412 3.867c5.02 0 9.74-1.955 13.291-5.505a18.675 18.675 0 005.506-13.292c0-3.298-.872-6.548-2.521-9.398z"/><path d="M31.83 19.052a1.101 1.101 0 00-.11-.835L29.518 14.4a1.102 1.102 0 00-1.505-.403l-1.254.724a7.977 7.977 0 00-1.42-.823v-1.445c0-.608-.493-1.101-1.102-1.101h-4.405c-.608 0-1.102.493-1.102 1.101V13.9c-.5.225-.974.5-1.42.823l-1.254-.724a1.1 1.1 0 00-1.505.403l-2.202 3.816a1.102 1.102 0 00.403 1.504l1.247.72a8.15 8.15 0 000 1.648l-1.247.72a1.102 1.102 0 00-.403 1.505l2.203 3.815a1.101 1.101 0 001.504.403l1.254-.724c.446.324.92.599 1.42.823v1.445c0 .609.494 1.102 1.102 1.102h4.405c.609 0 1.102-.493 1.102-1.102v-1.445c.5-.224.974-.5 1.42-.823l1.254.724a1.103 1.103 0 001.505-.403l2.202-3.815a1.101 1.101 0 00-.402-1.505l-1.248-.72a8.094 8.094 0 000-1.647l1.247-.72c.253-.147.438-.387.514-.67zm-4.04 1.031a5.92 5.92 0 010 2.364c-.095.464.118.937.528 1.174l.944.545-1.101 1.908-.952-.55a1.101 1.101 0 00-1.282.13c-.6.534-1.286.93-2.038 1.181-.45.15-.753.57-.753 1.045v1.095h-2.203V27.88c0-.474-.303-.895-.753-1.045a5.832 5.832 0 01-2.038-1.18 1.101 1.101 0 00-1.282-.13l-.952.549-1.101-1.908.944-.545c.41-.237.623-.71.528-1.174a5.936 5.936 0 010-2.364 1.101 1.101 0 00-.528-1.174l-.944-.545 1.101-1.907.952.55c.41.236.927.184 1.282-.131a5.83 5.83 0 012.038-1.18c.45-.15.753-.571.753-1.046v-1.095h2.203v1.095c0 .475.304.896.754 1.045a5.83 5.83 0 012.037 1.181c.355.315.872.367 1.282.13l.952-.55 1.101 1.908-.944.545c-.41.237-.623.71-.528 1.174z"/><path d="M22.035 17.227a4.043 4.043 0 00-4.039 4.038 4.043 4.043 0 004.039 4.039 4.043 4.043 0 004.038-4.039 4.043 4.043 0 00-4.038-4.038zm0 5.874a1.838 1.838 0 01-1.836-1.836c0-1.012.823-1.835 1.836-1.835 1.012 0 1.835.823 1.835 1.835a1.838 1.838 0 01-1.835 1.836z"/></svg><svg viewBox="0 0 42 43" id="defend" xmlns="http://www.w3.org/2000/svg"><path d="M21 42.479a2.892 2.892 0 01-.96-.15C16.687 41.275 0 34.984 0 16.088V3.485c0-.797.33-1.562.916-2.126A3.193 3.193 0 013.128.48h35.744c.83 0 1.625.317 2.212.88.586.564.916 1.329.916 2.126V16.09c0 18.896-16.688 25.187-20.04 26.24a2.892 2.892 0 01-.96.15zM3.128 3.056a.456.456 0 00-.316.125.421.421 0 00-.131.304V16.09c0 17.135 15.147 22.825 18.185 23.792a.3.3 0 00.268 0c3.038-.967 18.185-6.657 18.185-23.792V3.485a.421.421 0 00-.13-.304.456.456 0 00-.317-.125H3.128z"/></svg><svg viewBox="0 0 42 43" id="gift" xmlns="http://www.w3.org/2000/svg"><path d="M42 12.21c0-1.434-1.175-2.597-2.625-2.597h-4.48c1.159-1.131 1.9-2.615 1.9-4.441 0-2.25-1.305-4.693-4.97-4.693-4.824 0-8.854 5.08-10.747 7.928C19.183 5.56 15.031.48 10.208.48c-3.666 0-4.972 2.443-4.972 4.692 0 1.826.763 3.31 1.946 4.442H2.625C1.175 9.614 0 10.776 0 12.21v7.772h2.648v16.9c0 1.434 1.175 2.597 2.625 2.597H36.76c1.45 0 2.625-1.163 2.625-2.596V19.982H42V12.21zM31.824 3.075c1.623 0 2.347.675 2.347 2.096 0 2.884-3.254 4.44-6.315 4.44h-4.444c1.865-2.74 5.148-6.536 8.412-6.536zm-21.616 0c3.265 0 6.671 3.796 8.536 6.536H14.3c-3.061 0-6.439-1.597-6.439-4.48 0-1.422.724-2.056 2.347-2.056zm29.167 14.31H22.312V12.21h17.063v5.175zM2.625 12.21h17.063v5.175H2.625V12.21zm2.648 7.772h14.415v16.9H5.273v-16.9zm31.488 16.9H22.312v-16.9H36.76v16.9z"/></svg><svg viewBox="0 0 42 43" id="like" xmlns="http://www.w3.org/2000/svg"><path d="M40.948 15.418c-.4-.438-.89-.789-1.438-1.03a4.344 4.344 0 00-1.743-.364H26.99v-3.39a7.073 7.073 0 00-2.145-5.06 7.415 7.415 0 00-5.18-2.095 1.177 1.177 0 00-.612.166 1.14 1.14 0 00-.43.455L11.24 18.544H2.7c-.716 0-1.402.278-1.908.772A2.605 2.605 0 000 21.18v16.572c0 .699.284 1.37.79 1.864a2.732 2.732 0 001.909.772h32.755a4.318 4.318 0 002.8-1.046 4.133 4.133 0 001.402-2.588l2.314-18.078a4.124 4.124 0 00-.16-1.734 4.19 4.19 0 00-.862-1.524zM2.313 37.752V21.18c0-.1.041-.195.113-.266a.39.39 0 01.273-.11h8.097v17.324H2.7a.39.39 0 01-.273-.11.372.372 0 01-.113-.266zm37.363-19.359l-2.314 18.078a1.87 1.87 0 01-.633 1.182 1.954 1.954 0 01-1.276.475H13.11v-18.19l7.25-14.162a5.085 5.085 0 013.08 1.647 4.868 4.868 0 011.238 3.212v4.52c0 .299.122.586.339.798.217.212.51.331.817.331h11.934c.274 0 .544.058.794.168a1.925 1.925 0 011.047 1.158c.08.253.103.52.068.783z"/></svg><svg viewBox="0 0 41 42" id="oil" xmlns="http://www.w3.org/2000/svg"><path d="M32.07 9.833l2.798-2.798h2.175c.658 0 1.192-.534 1.192-1.192V2.1c0-.658-.534-1.192-1.192-1.192h-5.671c-.316 0-.62.126-.843.35l-3.517 3.516-.563-.562a1.192 1.192 0 00-1.685 0l-2.552 2.552a4.337 4.337 0 00-2.7-.934H4.457a4.376 4.376 0 00-4.371 4.371v27.03a4.376 4.376 0 004.371 4.37h22.186c2.41 0 4.372-1.96 4.372-4.37v-19.9c0-.992-.33-1.932-.934-2.7l2.552-2.55a1.192 1.192 0 000-1.687l-.562-.562zm-.204-6.54h3.985V4.65h-1.476c-.317 0-.62.126-.843.35l-3.148 3.147-1.686-1.686 3.168-3.168zm-3.237 33.938a1.99 1.99 0 01-1.987 1.987H4.456a1.99 1.99 0 01-1.987-1.987V10.202a1.99 1.99 0 011.987-1.987h15.056c.531 0 1.03.207 1.406.582l7.13 7.13c.375.375.581.874.581 1.405v19.9zm-.212-24.307L23.92 8.428l1.687-1.686 4.495 4.496-1.685 1.686z"/><path d="M19.697 10.949a1.192 1.192 0 00-.843-.35H8.396a3.546 3.546 0 00-3.543 3.543 3.546 3.546 0 003.543 3.543h15.159a1.192 1.192 0 00.842-2.036l-4.7-4.7zM8.396 15.3a1.16 1.16 0 01-1.158-1.158c0-.638.52-1.158 1.158-1.158h9.964l2.316 2.316H8.396zM39.39 15.498a25.174 25.174 0 00-1.258-1.743 1.192 1.192 0 00-1.86 0c-.026.032-.639.798-1.259 1.743-1.244 1.896-1.388 2.788-1.388 3.294a3.58 3.58 0 003.577 3.577 3.58 3.58 0 003.577-3.577c0-.506-.144-1.398-1.388-3.294zm-2.188 4.486a1.193 1.193 0 01-1.192-1.19c.011-.344.514-1.281 1.192-2.283.678 1.001 1.18 1.938 1.192 2.282 0 .657-.535 1.191-1.192 1.191zM22.708 22.979a1.192 1.192 0 10-1.686-1.686l-2.035 2.035h-6.875l-2.036-2.035a1.192 1.192 0 10-1.685 1.686l2.035 2.035v6.875L8.39 33.925a1.192 1.192 0 101.686 1.686l2.036-2.036h6.875l2.035 2.035a1.188 1.188 0 001.686 0 1.192 1.192 0 000-1.686l-2.035-2.035v-6.875l2.035-2.035zm-4.42 8.212H12.81v-5.479h5.479v5.479z"/></svg><svg viewBox="0 0 42 43" id="plus" xmlns="http://www.w3.org/2000/svg"><path d="M20.728.479c-4.153 0-8.213 1.19-11.667 3.421-3.453 2.23-6.145 5.401-7.734 9.11A19.672 19.672 0 00.132 24.74c.81 3.937 2.81 7.554 5.747 10.393 2.937 2.84 6.679 4.773 10.752 5.556 4.074.783 8.296.381 12.134-1.155 3.837-1.537 7.117-4.139 9.424-7.477a19.822 19.822 0 003.54-11.278c-.006-5.382-2.22-10.543-6.157-14.348C31.634 2.625 26.296.484 20.727.479zm0 38.212c-3.665 0-7.247-1.05-10.294-3.019-3.047-1.968-5.422-4.765-6.825-8.038a17.358 17.358 0 01-1.054-10.35c.715-3.474 2.48-6.665 5.071-9.17a18.735 18.735 0 019.487-4.903 19.123 19.123 0 0110.706 1.02c3.386 1.355 6.28 3.651 8.316 6.597a17.489 17.489 0 013.123 9.951c-.006 4.749-1.96 9.302-5.433 12.66-3.474 3.358-8.184 5.246-13.097 5.252zm9.47-17.912c0 .317-.13.62-.36.844-.233.224-.547.35-.874.35h-7v6.767c0 .317-.13.62-.362.844-.232.224-.546.35-.874.35-.327 0-.642-.126-.873-.35a1.174 1.174 0 01-.362-.844v-6.767h-7c-.328 0-.642-.126-.873-.35a1.174 1.174 0 01-.362-.844c0-.317.13-.62.362-.844.231-.224.545-.35.873-.35h7v-6.767c0-.316.13-.62.362-.844.232-.224.546-.35.873-.35.328 0 .642.126.874.35.231.224.362.527.362.844v6.767h7c.327 0 .641.126.873.35.232.224.362.527.362.844z"/></svg><svg viewBox="0 0 24 42" id="power" xmlns="http://www.w3.org/2000/svg"><path d="M23.171 16.748a1.265 1.265 0 00-1.065-.58h-8.903V2.178a1.271 1.271 0 00-2.434-.516L.595 24.554a1.271 1.271 0 001.162 1.788h8.903v13.99a1.271 1.271 0 002.434.518l10.174-22.891c.173-.395.14-.85-.097-1.211zm-9.968 17.59V25.07c0-.702-.57-1.272-1.271-1.272H3.716L10.66 8.171v9.269c0 .702.57 1.271 1.272 1.271h8.215L13.203 34.34z"/></svg><svg viewBox="0 0 43 43" id="speed" xmlns="http://www.w3.org/2000/svg"><path d="M21.258 2.02c-3.199.001-6.343.817-9.144 2.353a1.275 1.275 0 101.223 2.234 16.497 16.497 0 017.921-2.04c9.16-.005 16.558 7.398 16.558 16.558s-7.398 16.558-16.558 16.558S4.701 30.285 4.7 21.125c0-2.774.694-5.504 2.023-7.938a1.274 1.274 0 10-2.234-1.22 19.112 19.112 0 00-2.336 9.158c0 10.536 8.569 19.105 19.105 19.105 10.537 0 19.105-8.569 19.105-19.105 0-10.537-8.567-19.111-19.105-19.105zm-.005 5.09c-7.722 0-14.008 6.297-14.008 14.02 0 .743.633 1.269 1.376 1.269h2.45c1.699 0 1.699-2.548 0-2.548H9.867a11.412 11.412 0 012.433-5.88l.848.85c1.204 1.204 3.01-.602 1.806-1.806l-.85-.85a11.386 11.386 0 015.88-2.431v1.204c-.038 1.736 2.586 1.736 2.548 0V9.734a11.406 11.406 0 015.88 2.433l-.85.848c-1.204 1.204.602 3.01 1.806 1.806l.848-.85a11.41 11.41 0 012.436 5.88h-1.207c-1.698 0-1.698 2.548 0 2.548h2.446c.746 0 1.383-.523 1.383-1.27 0-7.722-6.298-14.02-14.02-14.02zm-12.585.134a1.274 1.274 0 00-1.293 1.271 1.274 1.274 0 101.293-1.271zm12.585 10.06c-2.095 0-3.816 1.73-3.816 3.826a3.832 3.832 0 003.816 3.816c1.65 0 3.06-1.072 3.592-2.547h2.784c1.699 0 1.699-2.548 0-2.548h-2.786c-.534-1.474-1.944-2.547-3.59-2.547zm0 2.547c.719 0 1.279.56 1.279 1.279 0 .719-.56 1.269-1.279 1.269-.718 0-1.268-.55-1.268-1.27 0-.718.55-1.278 1.268-1.278zm-5.214 7.642l-.002.003a1.276 1.276 0 00.132 2.547H26.35a1.273 1.273 0 00.92-2.184 1.275 1.275 0 00-.92-.363H16.17a1.242 1.242 0 00-.13-.003zm2.545 5.098a1.275 1.275 0 00.132 2.547H23.8a1.274 1.274 0 000-2.547h-5.085a1.26 1.26 0 00-.132 0z"/></svg><svg viewBox="0 0 42 43" id="success" xmlns="http://www.w3.org/2000/svg"><path d="M30.944 15.694a1.215 1.215 0 01-.041 1.73L18.838 28.952c-.235.22-.543.344-.864.35a1.235 1.235 0 01-.845-.35l-6.032-5.765a1.223 1.223 0 111.688-1.77l5.189 4.94 11.24-10.706a1.215 1.215 0 011.73.042zM42 21.479a20.999 20.999 0 11-21-21 21.04 21.04 0 0121 21zm-2.47 0A18.529 18.529 0 1021 40.009a18.55 18.55 0 0018.53-18.53z"/></svg><svg viewBox="0 0 42 43" id="time" xmlns="http://www.w3.org/2000/svg"><path d="M31.907 21.948c.31 0 .607.127.826.354.22.226.342.532.342.852 0 .32-.123.627-.342.853a1.15 1.15 0 01-.826.353H21a1.15 1.15 0 01-.826-.353 1.225 1.225 0 01-.343-.853V11.901c0-.32.124-.627.343-.853a1.15 1.15 0 01.826-.353c.31 0 .607.127.826.353.22.226.343.533.343.853v10.047h9.738zm2.045-12.157c3.006 3.093 4.88 7.167 5.3 11.526a19.397 19.397 0 01-2.991 12.379c-2.356 3.645-5.863 6.334-9.925 7.609a17.819 17.819 0 01-12.35-.618c-3.924-1.674-7.164-4.7-9.167-8.563a19.46 19.46 0 01-1.817-12.62c.827-4.296 3.073-8.164 6.355-10.943C12.64 5.782 16.754 4.263 21 4.264c2.405-.005 4.788.481 7.01 1.43a18.222 18.222 0 015.942 4.097zm3.018 13.363c-.003-3.807-1.285-7.495-3.628-10.436-2.343-2.94-5.601-4.952-9.22-5.693a15.52 15.52 0 00-10.629 1.633c-3.253 1.797-5.802 4.7-7.212 8.219a16.948 16.948 0 00-.525 11.073c1.072 3.643 3.335 6.79 6.403 8.905a15.574 15.574 0 0010.423 2.693c3.672-.373 7.105-2.047 9.714-4.739a16.418 16.418 0 003.468-5.344c.803-2.001 1.213-4.146 1.206-6.311zm4.694-14.489l-6.622-6.832a1.139 1.139 0 00-1.656 0 1.24 1.24 0 000 1.708l6.623 6.832c.224.218.52.34.828.34.307 0 .603-.122.827-.34.216-.228.336-.535.336-.854 0-.319-.12-.625-.336-.854zM8.614 1.833a1.17 1.17 0 00-.829-.347c-.309 0-.606.125-.827.347L.336 8.665A1.247 1.247 0 000 9.52c0 .32.12.626.336.854.224.218.52.34.828.34.307 0 .603-.122.827-.34l6.622-6.832c.216-.229.336-.535.336-.854 0-.32-.12-.625-.336-.854z"/></svg></svg>