<svg width="22" height="16" viewBox="0 0 22 16" fill="none" xmlns="http://www.w3.org/2000/svg">
<path d="M21.4263 1.1626C21.2283 0.965728 20.9604 0.855225 20.6811 0.855225C20.4019 0.855225 20.134 0.965728 19.9359 1.1626L8.20297 12.8427L1.86083 6.50057C1.6674 6.29171 1.39892 6.16826 1.11446 6.15735C0.829996 6.14645 0.552856 6.249 0.344002 6.44243C0.135149 6.63587 0.011691 6.90435 0.000788354 7.18881C-0.0101143 7.47327 0.092431 7.75041 0.285866 7.95926L8.20297 15.8552L21.4263 2.66357C21.5254 2.56531 21.604 2.4484 21.6577 2.31959C21.7114 2.19078 21.739 2.05263 21.739 1.91309C21.739 1.77355 21.7114 1.63539 21.6577 1.50658C21.604 1.37777 21.5254 1.26086 21.4263 1.1626Z" fill="#5EB237"/>
</svg>
